<?xml version="1.0" encoding="UTF-8" standalone="no"?>
<svg
   xmlns:dc="http://purl.org/dc/elements/1.1/"
   xmlns:cc="http://creativecommons.org/ns#"
   xmlns:rdf="http://www.w3.org/1999/02/22-rdf-syntax-ns#"
   xmlns:svg="http://www.w3.org/2000/svg"
   xmlns="http://www.w3.org/2000/svg"
   xmlns:sodipodi="http://sodipodi.sourceforge.net/DTD/sodipodi-0.dtd"
   xmlns:inkscape="http://www.inkscape.org/namespaces/inkscape"
   sodipodi:docname="BBFC 12 2019.svg"
   inkscape:version="1.0beta1 (32d4812, 2019-09-19)"
   id="svg508"
   version="1.1"
   viewBox="0 0 92.604164 92.604166"
   height="92.604164mm"
   width="92.604164mm">
  <defs
     id="defs502">
    <clipPath
       id="clip1">
      <path
         inkscape:connector-curvature="0"
         d="m 42.519531,273.90234 h 62.843749 v 55.98438 H 42.519531 Z m 0,0"
         id="path60" />
    </clipPath>
    <clipPath
       id="clip2">
      <path
         inkscape:connector-curvature="0"
         d="m 126.75391,273.90234 h 62.83984 v 55.98438 h -62.83984 z m 0,0"
         id="path63" />
    </clipPath>
    <clipPath
       id="clip6">
      <path
         inkscape:connector-curvature="0"
         d="m 208.0625,273.90234 h 55.98437 v 55.98438 H 208.0625 Z m 0,0"
         id="path75" />
    </clipPath>
    <clipPath
       id="clip6-1">
      <path
         inkscape:connector-curvature="0"
         d="m 208.0625,273.90234 h 55.98437 v 55.98438 H 208.0625 Z m 0,0"
         id="path75-7" />
    </clipPath>
    <clipPath
       id="clip3">
      <path
         inkscape:connector-curvature="0"
         d="m 286.72656,273.90234 h 55.98438 v 55.98438 h -55.98438 z m 0,0"
         id="path66" />
    </clipPath>
  </defs>
  <sodipodi:namedview
     inkscape:window-maximized="0"
     inkscape:window-y="25"
     inkscape:window-x="45"
     inkscape:window-height="800"
     inkscape:window-width="1440"
     showgrid="false"
     inkscape:document-rotation="0"
     inkscape:current-layer="layer1"
     inkscape:document-units="mm"
     inkscape:cy="137.54597"
     inkscape:cx="123.20292"
     inkscape:zoom="0.57549725"
     inkscape:pageshadow="2"
     inkscape:pageopacity="0.0"
     borderopacity="1.0"
     bordercolor="#666666"
     pagecolor="#ffffff"
     id="base" />
  <metadata
     id="metadata505">
    <rdf:RDF>
      <cc:Work
         rdf:about="">
        <dc:format>image/svg+xml</dc:format>
        <dc:type
           rdf:resource="http://purl.org/dc/dcmitype/StillImage" />
        <dc:title></dc:title>
      </cc:Work>
    </rdf:RDF>
  </metadata>
  <g
     transform="translate(-64.510284,-127.70898)"
     id="layer1"
     inkscape:groupmode="layer"
     inkscape:label="Layer 1">
    <g
       transform="matrix(1.6542227,0,0,1.6542227,-409.7993,-325.38649)"
       id="g459">
      <g
         clip-path="url(#clip3)"
         clip-rule="nonzero"
         id="g199"
         style="opacity:1;stop-opacity:1">
        <path
           style="fill:#000000;fill-opacity:1;fill-rule:nonzero;stroke:none"
           d="m 314.71484,328.90234 c -14.91406,0 -27.00781,-12.09375 -27.00781,-27.01172 0,-14.91406 12.09375,-27.00781 27.00781,-27.00781 14.91797,0 27.01172,12.09375 27.01172,27.00781 0,14.91797 -12.09375,27.01172 -27.01172,27.01172 m 0,-55 c -15.45703,0 -27.99218,12.53125 -27.99218,27.98828 0,15.46094 12.53515,27.99219 27.99218,27.99219 15.46094,0 27.99219,-12.53125 27.99219,-27.99219 0,-15.45703 -12.53125,-27.98828 -27.99219,-27.98828"
           id="path197"
           inkscape:connector-curvature="0" />
      </g>
      <path
         style="opacity:1;fill:#ffffff;fill-opacity:1;fill-rule:nonzero;stroke:none;stop-opacity:1"
         d="m 314.71484,326.44531 c -13.55859,0 -24.55078,-10.99219 -24.55078,-24.55078 0,-13.5625 10.99219,-24.55469 24.55078,-24.55469 13.5625,0 24.55469,10.99219 24.55469,24.55469 0,13.55859 -10.99219,24.55078 -24.55469,24.55078 m 0,-51.5625 c -14.91406,0 -27.00781,12.09375 -27.00781,27.01172 0,14.91406 12.09375,27.00781 27.00781,27.00781 14.91797,0 27.01172,-12.09375 27.01172,-27.00781 0,-14.91797 -12.09375,-27.01172 -27.01172,-27.01172"
         id="path201"
         inkscape:connector-curvature="0" />
      <path
         style="opacity:1;fill:#ee7817;fill-opacity:1;fill-rule:nonzero;stroke:none;stop-opacity:1"
         d="m 314.71484,277.33984 c -13.55859,0 -24.55078,10.99219 -24.55078,24.55078 0,13.5625 10.99219,24.55469 24.55078,24.55469 13.5625,0 24.55469,-10.99219 24.55469,-24.55469 0,-13.55859 -10.99219,-24.55078 -24.55469,-24.55078"
         id="path203"
         inkscape:connector-curvature="0" />
      <path
         style="opacity:1;fill:#ffffff;fill-opacity:1;fill-rule:nonzero;stroke:none;stop-opacity:1"
         d="m 309.24609,291.76172 v 19.64453 h -3.57812 v -11.23438 c 0,-1.86328 0,-2.41406 -1.60156,-2.41406 h -3.20313 v -2.24219 h 0.37891 c 1.83593,-0.0312 4.30859,-0.0586 5.09765,-3.7539 z m 0,0"
         id="path205"
         inkscape:connector-curvature="0" />
      <path
         style="opacity:1;fill:#ffffff;fill-opacity:1;fill-rule:nonzero;stroke:none;stop-opacity:1"
         d="m 325.83594,308.38281 v 3.02735 h -13.36328 v -2.82422 c 2.5039,-1.71875 4.98046,-4.07813 6.14453,-5.26953 1.07422,-1.10547 2.8789,-2.9961 2.8789,-5.58985 0,-1.51172 -0.7539,-2.9375 -2.58984,-2.9375 -2.88281,0 -2.79297,3.14063 -2.76563,4.53906 l -3.66796,-0.32031 c 0,-2.76562 0.90234,-4.53906 1.66015,-5.4414 1.07813,-1.25391 2.94141,-2.125 5.06641,-2.125 3.72265,0 6.3164,2.41406 6.3164,6.14062 0,3.17188 -1.94921,5.44531 -4.10546,7.39453 -0.4375,0.37891 -3.05469,2.58985 -4.16407,3.40625 z m 0,0"
         id="path207"
         inkscape:connector-curvature="0" />
    </g>
  </g>
</svg>
