<?xml version="1.0" encoding="UTF-8" standalone="no"?>
<svg
   xmlns:dc="http://purl.org/dc/elements/1.1/"
   xmlns:cc="http://creativecommons.org/ns#"
   xmlns:rdf="http://www.w3.org/1999/02/22-rdf-syntax-ns#"
   xmlns:svg="http://www.w3.org/2000/svg"
   xmlns="http://www.w3.org/2000/svg"
   xmlns:sodipodi="http://sodipodi.sourceforge.net/DTD/sodipodi-0.dtd"
   xmlns:inkscape="http://www.inkscape.org/namespaces/inkscape"
   sodipodi:docname="BBFC 15 2019.svg"
   inkscape:version="1.0beta1 (32d4812, 2019-09-19)"
   id="svg8"
   version="1.1"
   viewBox="0 0 92.604164 92.597717"
   height="92.597717mm"
   width="92.604164mm">
  <defs
     id="defs2">
    <clipPath
       id="clip1">
      <path
         id="path60"
         d="m 42.519531,273.90234 h 62.843749 v 55.98438 H 42.519531 Z m 0,0"
         inkscape:connector-curvature="0" />
    </clipPath>
    <clipPath
       id="clip2">
      <path
         id="path63"
         d="m 126.75391,273.90234 h 62.83984 v 55.98438 h -62.83984 z m 0,0"
         inkscape:connector-curvature="0" />
    </clipPath>
    <clipPath
       id="clip6">
      <path
         id="path75"
         d="m 208.0625,273.90234 h 55.98437 v 55.98438 H 208.0625 Z m 0,0"
         inkscape:connector-curvature="0" />
    </clipPath>
    <clipPath
       id="clip6-1">
      <path
         id="path75-7"
         d="m 208.0625,273.90234 h 55.98437 v 55.98438 H 208.0625 Z m 0,0"
         inkscape:connector-curvature="0" />
    </clipPath>
    <clipPath
       id="clip3">
      <path
         id="path66"
         d="m 286.72656,273.90234 h 55.98438 v 55.98438 h -55.98438 z m 0,0"
         inkscape:connector-curvature="0" />
    </clipPath>
    <clipPath
       id="clip4">
      <path
         id="path69"
         d="m 365.38672,273.90234 h 55.98437 v 55.98438 h -55.98437 z m 0,0"
         inkscape:connector-curvature="0" />
    </clipPath>
    <clipPath
       id="clip4-8">
      <path
         inkscape:connector-curvature="0"
         d="m 365.38672,273.90234 h 55.98437 v 55.98438 h -55.98437 z m 0,0"
         id="path69-0" />
    </clipPath>
  </defs>
  <sodipodi:namedview
     inkscape:window-maximized="0"
     inkscape:window-y="23"
     inkscape:window-x="0"
     inkscape:window-height="800"
     inkscape:window-width="1440"
     showgrid="false"
     inkscape:document-rotation="0"
     inkscape:current-layer="layer1"
     inkscape:document-units="mm"
     inkscape:cy="151.60604"
     inkscape:cx="214.46577"
     inkscape:zoom="0.35"
     inkscape:pageshadow="2"
     inkscape:pageopacity="0.0"
     borderopacity="1.0"
     bordercolor="#666666"
     pagecolor="#ffffff"
     id="base" />
  <metadata
     id="metadata5">
    <rdf:RDF>
      <cc:Work
         rdf:about="">
        <dc:format>image/svg+xml</dc:format>
        <dc:type
           rdf:resource="http://purl.org/dc/dcmitype/StillImage" />
        <dc:title></dc:title>
      </cc:Work>
    </rdf:RDF>
  </metadata>
  <g
     transform="translate(-49.089264,-108.05423)"
     id="layer1"
     inkscape:groupmode="layer"
     inkscape:label="Layer 1">
    <g
       transform="matrix(1.6541075,0,0,1.6541075,-555.29965,-345.00968)"
       id="g339">
      <g
         id="g211"
         clip-rule="nonzero"
         clip-path="url(#clip4-8)">
        <path
           inkscape:connector-curvature="0"
           id="path209"
           d="m 393.37891,328.90234 c -14.91797,0 -27.01172,-12.09375 -27.01172,-27.01172 0,-14.91406 12.09375,-27.00781 27.01172,-27.00781 14.91406,0 27.00781,12.09375 27.00781,27.00781 0,14.91797 -12.09375,27.01172 -27.00781,27.01172 m 0,-55 c -15.46094,0 -27.99219,12.53125 -27.99219,27.98828 0,15.46094 12.53125,27.99219 27.99219,27.99219 15.46093,0 27.99218,-12.53125 27.99218,-27.99219 0,-15.45703 -12.53125,-27.98828 -27.99218,-27.98828"
           style="fill:#000000;fill-opacity:1;fill-rule:nonzero;stroke:none" />
      </g>
      <path
         inkscape:connector-curvature="0"
         id="path213"
         d="m 393.37891,326.44531 c -13.5625,0 -24.55469,-10.99219 -24.55469,-24.55078 0,-13.5625 10.99219,-24.55469 24.55469,-24.55469 13.55859,0 24.55468,10.99219 24.55468,24.55469 0,13.55859 -10.99609,24.55078 -24.55468,24.55078 m 0,-51.5625 c -14.91797,0 -27.01172,12.09375 -27.01172,27.01172 0,14.91406 12.09375,27.00781 27.01172,27.00781 14.91406,0 27.00781,-12.09375 27.00781,-27.00781 0,-14.91797 -12.09375,-27.01172 -27.00781,-27.01172"
         style="fill:#ffffff;fill-opacity:1;fill-rule:nonzero;stroke:none" />
      <path
         inkscape:connector-curvature="0"
         id="path215"
         d="m 393.37891,277.33984 c -13.5625,0 -24.55469,10.99219 -24.55469,24.55078 0,13.5625 10.99219,24.55469 24.55469,24.55469 13.55859,0 24.55468,-10.99219 24.55468,-24.55469 0,-13.55859 -10.99609,-24.55078 -24.55468,-24.55078"
         style="fill:#eb5791;fill-opacity:1;fill-rule:nonzero;stroke:none" />
      <path
         inkscape:connector-curvature="0"
         id="path217"
         d="m 387.90625,291.75781 v 19.64844 h -3.58203 v -11.23438 c 0,-1.86328 0,-2.41406 -1.60156,-2.41406 h -3.19922 v -2.24219 h 0.375 c 1.83593,-0.0312 4.30859,-0.0586 5.09765,-3.75781 z m 0,0"
         style="fill:#ffffff;fill-opacity:1;fill-rule:nonzero;stroke:none" />
      <path
         inkscape:connector-curvature="0"
         id="path219"
         d="m 403.15234,294.99219 h -7.65625 l -0.66797,4.33593 c 0.8711,-0.875 2.26954,-1.45703 3.78516,-1.45703 3.49219,0 5.96484,2.59375 5.96484,6.55078 0,4.04688 -2.64843,7.25 -7.30468,7.25 -1.3086,0 -2.58985,-0.23437 -3.72657,-0.8164 -2.73828,-1.45703 -2.9414,-3.98828 -3.02734,-4.94922 l 4.07422,-0.29297 c 0.0898,2.01172 1.33984,2.91406 2.82422,2.91406 0.67187,0 1.25,-0.14453 1.71875,-0.46484 0.87109,-0.58594 1.48437,-1.95313 1.48437,-3.49609 0,-2.44532 -1.51562,-3.69532 -3.26172,-3.69532 -1.33984,0 -2.47265,0.60938 -2.9414,1.83203 l -3.28516,-0.20312 1.39453,-10.80078 h 10.91797 z m 0,0"
         style="fill:#ffffff;fill-opacity:1;fill-rule:nonzero;stroke:none" />
    </g>
  </g>
</svg>
