<?xml version="1.0" encoding="UTF-8" standalone="no"?>
<svg xmlns="http://www.w3.org/2000/svg" width="92.604164mm" height="92.604149mm" viewBox="0 0 92.604164 92.604149">
  <defs>
    <clipPath id="a">
      <path d="M444.04687 273.89844h55.98438v55.98437h-55.98438zm0 0"/>
    </clipPath>
  </defs>
  <g transform="translate(-734.501125 -453.05738) scale(1.6541)">
    <g clip-path="url(#a)">
      <path d="M472.03906 328.89844c-14.91797 0-27.00781-12.09375-27.00781-27.00782 0-14.91796 12.08984-27.01171 27.00781-27.01171 14.91797 0 27.01172 12.09375 27.01172 27.01171 0 14.91407-12.09375 27.00782-27.01172 27.00782m0-55c-15.46094 0-27.99219 12.53125-27.99219 27.99218 0 15.45704 12.53125 27.99219 27.99219 27.99219s27.99219-12.53515 27.99219-27.99219c0-15.46093-12.53125-27.99218-27.99219-27.99218"/>
    </g>
    <path fill="#fff" d="M472.03906 326.44531c-13.5625 0-24.55469-10.99609-24.55469-24.55469 0-13.5625 10.99219-24.55468 24.55469-24.55468s24.55469 10.99218 24.55469 24.55468c0 13.5586-10.99219 24.55469-24.55469 24.55469m0-51.5664c-14.91797 0-27.00781 12.09375-27.00781 27.01171 0 14.91797 12.08984 27.00782 27.00781 27.00782 14.91797 0 27.01172-12.08985 27.01172-27.00782 0-14.91796-12.09375-27.01171-27.01172-27.01171"/>
    <path fill="#d70723" d="M472.03906 277.33594c-13.5625 0-24.55469 10.99218-24.55469 24.55468 0 13.5586 10.99219 24.55469 24.55469 24.55469s24.55469-10.99609 24.55469-24.55469c0-13.5625-10.99219-24.55468-24.55469-24.55468"/>
    <path fill="#fff" d="M466.56641 291.75781v19.64844h-3.57813v-11.23828c0-1.86328 0-2.41406-1.60547-2.41406h-3.19922v-2.24219h.37891c1.83203-.0274 4.30859-.0586 5.09375-3.75391zm17.02343 14c0 3.58203-3.08593 5.91016-7.36328 5.91016-4.48437 0-7.25-2.50391-7.25-5.91016 0-3.08594 2.24219-4.16406 3.23047-4.6289-2.09375-.98829-2.53125-3.11329-2.53125-4.27735 0-3.05469 2.53125-5.41406 6.75391-5.41406 4.04687 0 6.69531 2.18359 6.69531 5.58594 0 1.71875-.69922 3.20312-2.5625 4.10547 2.26953 1.13671 3.02734 2.82421 3.02734 4.6289m-10.50781-.11719c0 1.66016 1.16406 2.79688 3.31641 2.79688 1.89453 0 3.29297-.99219 3.29297-2.82422 0-.35156-.0586-2.79687-3.29297-2.79687-3.11328 0-3.31641 2.21484-3.31641 2.82421m.32031-8.35156c0 .8711.37891 2.58985 3.02735 2.58985 2.30078 0 2.88281-1.48438 2.88281-2.58985 0-2.24219-1.77734-2.64844-2.91406-2.64844-2.47266-.0312-2.9961 1.57032-2.9961 2.64844"/>
  </g>
</svg>