<?xml version="1.0" encoding="UTF-8" standalone="no"?>
<svg
   xmlns:dc="http://purl.org/dc/elements/1.1/"
   xmlns:cc="http://creativecommons.org/ns#"
   xmlns:rdf="http://www.w3.org/1999/02/22-rdf-syntax-ns#"
   xmlns:svg="http://www.w3.org/2000/svg"
   xmlns="http://www.w3.org/2000/svg"
   xmlns:sodipodi="http://sodipodi.sourceforge.net/DTD/sodipodi-0.dtd"
   xmlns:inkscape="http://www.inkscape.org/namespaces/inkscape"
   sodipodi:docname="BBFC PG 2019.svg"
   inkscape:version="1.0beta1 (32d4812, 2019-09-19)"
   id="svg508"
   version="1.1"
   viewBox="0 0 92.604172 82.495836"
   height="82.495834mm"
   width="92.604172mm">
  <defs
     id="defs502">
    <clipPath
       id="clip1">
      <path
         inkscape:connector-curvature="0"
         d="m 42.519531,273.90234 h 62.843749 v 55.98438 H 42.519531 Z m 0,0"
         id="path60" />
    </clipPath>
    <clipPath
       id="clip2">
      <path
         inkscape:connector-curvature="0"
         d="m 126.75391,273.90234 h 62.83984 v 55.98438 h -62.83984 z m 0,0"
         id="path63" />
    </clipPath>
  </defs>
  <sodipodi:namedview
     inkscape:window-maximized="0"
     inkscape:window-y="23"
     inkscape:window-x="0"
     inkscape:window-height="800"
     inkscape:window-width="1440"
     showgrid="false"
     inkscape:document-rotation="0"
     inkscape:current-layer="layer1"
     inkscape:document-units="mm"
     inkscape:cy="186.0421"
     inkscape:cx="69.441947"
     inkscape:zoom="1.0151523"
     inkscape:pageshadow="2"
     inkscape:pageopacity="0.0"
     borderopacity="1.0"
     bordercolor="#666666"
     pagecolor="#ffffff"
     id="base" />
  <metadata
     id="metadata505">
    <rdf:RDF>
      <cc:Work
         rdf:about="">
        <dc:format>image/svg+xml</dc:format>
        <dc:type
           rdf:resource="http://purl.org/dc/dcmitype/StillImage" />
        <dc:title></dc:title>
      </cc:Work>
    </rdf:RDF>
  </metadata>
  <g
     transform="translate(-64.510301,-127.70899)"
     id="layer1"
     inkscape:groupmode="layer"
     inkscape:label="Layer 1">
    <g
       transform="matrix(1.4736538,0,0,1.4736538,-122.28108,-275.92823)"
       id="g442">
      <g
         clip-path="url(#clip2)"
         clip-rule="nonzero"
         id="g187"
         style="opacity:1;stop-opacity:1">
        <path
           style="fill:#000000;fill-opacity:1;fill-rule:nonzero;stroke:none"
           d="m 187.94531,326.45312 c -0.88281,1.53516 -2.47265,2.44922 -4.24219,2.44922 h -51.05859 c -1.77344,0 -3.35937,-0.91406 -4.24609,-2.44922 -0.88281,-1.53515 -0.88281,-3.36718 0,-4.90234 l 25.53125,-44.21875 c 0.88672,-1.53516 2.47265,-2.44922 4.24218,-2.44922 1.77344,0 3.35938,0.91406 4.2461,2.44922 l 25.52734,44.21875 c 0.88672,1.53125 0.88672,3.36719 0,4.90234 m 0.85156,-5.39453 -25.52734,-44.21484 c -1.06641,-1.84375 -2.96875,-2.94141 -5.09766,-2.94141 -2.125,0 -4.03125,1.09766 -5.09375,2.9375 l -25.53124,44.21875 c -1.0625,1.84375 -1.0625,4.04297 0.004,5.88282 1.0625,1.84375 2.96875,2.9414 5.09375,2.9414 h 51.05859 c 2.125,0 4.03125,-1.09765 5.09375,-2.9414 1.0625,-1.83985 1.0625,-4.03907 0,-5.88282"
           id="path185"
           inkscape:connector-curvature="0" />
      </g>
      <path
         style="opacity:1;fill:#ffffff;fill-opacity:1;fill-rule:nonzero;stroke:none;stop-opacity:1"
         d="m 183.70312,326.44531 h -51.05859 c -1.88281,0 -3.05859,-2.03515 -2.11719,-3.66797 l 25.52735,-44.21484 c 0.47265,-0.81641 1.29297,-1.22266 2.11718,-1.22266 0.82422,0 1.64844,0.40625 2.1211,1.22266 l 25.52734,44.21484 c 0.94141,1.63282 -0.23437,3.66797 -2.11719,3.66797 m 4.24219,-4.89453 -25.52734,-44.21875 c -0.88672,-1.53516 -2.47266,-2.44922 -4.2461,-2.44922 -1.76953,0 -3.35937,0.91406 -4.24609,2.44922 l -25.52734,44.21875 c -0.88672,1.53516 -0.88672,3.36719 0.004,4.90234 0.88282,1.53516 2.47266,2.44922 4.24219,2.44922 h 51.05859 c 1.76954,0 3.35547,-0.91406 4.24219,-2.44922 0.88672,-1.53515 0.88672,-3.37109 0,-4.90234"
         id="path189"
         inkscape:connector-curvature="0" />
      <path
         style="opacity:1;fill:#fab800;fill-opacity:1;fill-rule:nonzero;stroke:none;stop-opacity:1"
         d="m 160.29297,278.5625 c -0.47266,-0.81641 -1.29688,-1.22266 -2.1211,-1.22266 -0.82031,0 -1.64453,0.40625 -2.11718,1.22266 l -25.52735,44.21484 c -0.9414,1.63282 0.23438,3.66797 2.11719,3.66797 h 51.05859 c 1.88282,0 3.0586,-2.03515 2.11719,-3.66797 z m 0,0"
         id="path191"
         inkscape:connector-curvature="0" />
      <path
         style="opacity:1;fill:#ffffff;fill-opacity:1;fill-rule:nonzero;stroke:none;stop-opacity:1"
         d="m 143.39062,302.80078 h 6.29688 c 1.03125,0 2.11719,0 3.20312,0.29297 1.82422,0.50391 4.39063,2.14453 4.39063,5.92578 0,2.48828 -1.16406,5.16016 -4.49609,5.90234 -1.03516,0.23829 -2.01172,0.23829 -3.15235,0.23829 h -2.72265 v 6.32421 h -3.51954 z m 3.51954,2.99219 v 6.48437 h 2.51171 c 0.74219,0 1.375,0 1.98438,-0.16015 2.17187,-0.53125 2.30078,-2.51563 2.30078,-3.17578 0,-1.375 -0.60547,-2.08985 -0.92187,-2.38282 -0.875,-0.73828 -2.09375,-0.76562 -3.23047,-0.76562 z m 0,0"
         id="path193"
         inkscape:connector-curvature="0" />
      <path
         style="opacity:1;fill:#ffffff;fill-opacity:1;fill-rule:nonzero;stroke:none;stop-opacity:1"
         d="m 175.10156,311.26953 v 10.21484 h -2.99219 v -1.58984 c -1.66406,1.64063 -3.54296,2.06641 -5.10546,2.06641 -5.76563,0 -8.8086,-4.60547 -8.8086,-9.63282 0,-5.875 3.88672,-10 9.01953,-10 3.89063,0 6.75,2.37891 7.88672,5.50391 l -3.33594,1.34766 c -0.34375,-1.03125 -1.34765,-3.70313 -4.52343,-3.70313 -3.51953,0 -5.23828,3.06641 -5.23828,6.7461 0,4.10156 2.25,6.45703 5.28906,6.45703 1.96094,0 4.28906,-1.03125 4.60547,-4.33985 h -4.65625 v -3.07031 z m 0,0"
         id="path195"
         inkscape:connector-curvature="0" />
    </g>
  </g>
</svg>
