<?xml version="1.0" encoding="UTF-8" standalone="no"?>
<svg
   xmlns:dc="http://purl.org/dc/elements/1.1/"
   xmlns:cc="http://creativecommons.org/ns#"
   xmlns:rdf="http://www.w3.org/1999/02/22-rdf-syntax-ns#"
   xmlns:svg="http://www.w3.org/2000/svg"
   xmlns="http://www.w3.org/2000/svg"
   xmlns:sodipodi="http://sodipodi.sourceforge.net/DTD/sodipodi-0.dtd"
   xmlns:inkscape="http://www.inkscape.org/namespaces/inkscape"
   sodipodi:docname="BBFC R18 2019.svg"
   inkscape:version="1.0beta1 (32d4812, 2019-09-19)"
   id="svg8"
   version="1.1"
   viewBox="0 0 92.604164 92.604164"
   height="92.604164mm"
   width="92.604164mm">
  <defs
     id="defs2">
    <clipPath
       id="clip1">
      <path
         id="path60"
         d="m 42.519531,273.90234 h 62.843749 v 55.98438 H 42.519531 Z m 0,0"
         inkscape:connector-curvature="0" />
    </clipPath>
    <clipPath
       id="clip2">
      <path
         id="path63"
         d="m 126.75391,273.90234 h 62.83984 v 55.98438 h -62.83984 z m 0,0"
         inkscape:connector-curvature="0" />
    </clipPath>
    <clipPath
       id="clip6">
      <path
         id="path75"
         d="m 208.0625,273.90234 h 55.98437 v 55.98438 H 208.0625 Z m 0,0"
         inkscape:connector-curvature="0" />
    </clipPath>
    <clipPath
       id="clip6-1">
      <path
         id="path75-7"
         d="m 208.0625,273.90234 h 55.98437 v 55.98438 H 208.0625 Z m 0,0"
         inkscape:connector-curvature="0" />
    </clipPath>
    <clipPath
       id="clip3">
      <path
         id="path66"
         d="m 286.72656,273.90234 h 55.98438 v 55.98438 h -55.98438 z m 0,0"
         inkscape:connector-curvature="0" />
    </clipPath>
    <clipPath
       id="clip4">
      <path
         id="path69"
         d="m 365.38672,273.90234 h 55.98437 v 55.98438 h -55.98437 z m 0,0"
         inkscape:connector-curvature="0" />
    </clipPath>
    <clipPath
       id="clip4-8">
      <path
         inkscape:connector-curvature="0"
         d="m 365.38672,273.90234 h 55.98437 v 55.98438 h -55.98437 z m 0,0"
         id="path69-0" />
    </clipPath>
    <clipPath
       id="clip5">
      <path
         inkscape:connector-curvature="0"
         d="m 444.04687,273.89844 h 55.98438 v 55.98437 h -55.98438 z m 0,0"
         id="path72" />
    </clipPath>
    <clipPath
       id="clip7">
      <path
         inkscape:connector-curvature="0"
         d="m 525,273 h 56.10156 v 57 H 525 Z m 0,0"
         id="path78" />
    </clipPath>
  </defs>
  <sodipodi:namedview
     inkscape:window-maximized="0"
     inkscape:window-y="23"
     inkscape:window-x="0"
     inkscape:window-height="800"
     inkscape:window-width="1440"
     showgrid="false"
     inkscape:document-rotation="0"
     inkscape:current-layer="layer1"
     inkscape:document-units="mm"
     inkscape:cy="151.60602"
     inkscape:cx="214.46578"
     inkscape:zoom="0.35"
     inkscape:pageshadow="2"
     inkscape:pageopacity="0.0"
     borderopacity="1.0"
     bordercolor="#666666"
     pagecolor="#ffffff"
     id="base" />
  <metadata
     id="metadata5">
    <rdf:RDF>
      <cc:Work
         rdf:about="">
        <dc:format>image/svg+xml</dc:format>
        <dc:type
           rdf:resource="http://purl.org/dc/dcmitype/StillImage" />
        <dc:title></dc:title>
      </cc:Work>
    </rdf:RDF>
  </metadata>
  <g
     transform="translate(-49.089262,-108.05423)"
     id="layer1"
     inkscape:groupmode="layer"
     inkscape:label="Layer 1">
    <g
       transform="matrix(1.6541075,0,0,1.6541075,-819.51102,-345.00323)"
       id="g331">
      <path
         inkscape:connector-curvature="0"
         id="path247"
         d="m 577.48437,323.69141 c 0,1.42187 -1.15234,2.57031 -2.57031,2.57031 h -43.60547 c -1.42187,0 -2.57031,-1.14844 -2.57031,-2.57031 v -43.60547 c 0,-1.41797 1.14844,-2.57032 2.57031,-2.57032 h 43.60547 c 1.41797,0 2.57031,1.15235 2.57031,2.57032 z m -2.57031,-48.76172 h -43.60547 c -2.84375,0 -5.15625,2.3125 -5.15625,5.15625 v 43.60547 c 0,2.84375 2.3125,5.15625 5.15625,5.15625 h 43.60547 c 2.83985,0 5.15625,-2.3125 5.15625,-5.15625 v -43.60547 c 0,-2.84375 -2.3164,-5.15625 -5.15625,-5.15625"
         style="fill:#ffffff;fill-opacity:1;fill-rule:nonzero;stroke:none" />
      <g
         id="g251"
         clip-rule="nonzero"
         clip-path="url(#clip7)">
        <path
           inkscape:connector-curvature="0"
           id="path249"
           d="m 580.07031,323.69141 c 0,2.84375 -2.3164,5.15625 -5.15625,5.15625 h -43.60547 c -2.84375,0 -5.15625,-2.3125 -5.15625,-5.15625 v -43.60547 c 0,-2.84375 2.3125,-5.15625 5.15625,-5.15625 h 43.60547 c 2.83985,0 5.15625,2.3125 5.15625,5.15625 z m -5.15625,-49.79297 h -43.60547 c -3.41406,0 -6.1914,2.77734 -6.1914,6.1875 v 43.60547 c 0,3.41406 2.77734,6.1914 6.1914,6.1914 h 43.60547 c 3.41016,0 6.1875,-2.77734 6.1875,-6.1914 v -43.60547 c 0,-3.41016 -2.77734,-6.1875 -6.1875,-6.1875"
           style="fill:#000000;fill-opacity:1;fill-rule:nonzero;stroke:none" />
      </g>
      <path
         inkscape:connector-curvature="0"
         id="path253"
         d="m 574.91406,277.51562 h -43.60547 c -1.42187,0 -2.57031,1.15235 -2.57031,2.57032 v 43.60547 c 0,1.42187 1.14844,2.57031 2.57031,2.57031 h 43.60547 c 1.41797,0 2.57031,-1.14844 2.57031,-2.57031 v -43.60547 c 0,-1.41797 -1.15234,-2.57032 -2.57031,-2.57032"
         style="fill:#007dc7;fill-opacity:1;fill-rule:nonzero;stroke:none" />
      <path
         inkscape:connector-curvature="0"
         id="path255"
         d="m 532.04297,291.30469 h 6.5625 c 2.74609,0.0312 4.58203,0.0312 6.39062,1.48828 1.28516,1.05078 2.27735,2.68359 2.27735,5.07812 0,3.9375 -2.89063,5.3086 -4.0586,5.66016 l 4.58203,8.375 h -4.40625 l -4.08203,-7.64453 h -3.44531 v 7.64453 h -3.82031 z m 3.82031,3.32812 v 6.44922 h 1.34375 c 1.3125,0 1.80859,-0.0312 2.53906,-0.0586 0.84375,-0.0312 3.61719,-0.17578 3.61719,-3.17969 0,-0.4375 -0.0312,-1.95703 -1.63281,-2.77344 -0.82031,-0.40625 -1.8125,-0.4375 -4.08594,-0.4375 z m 0,0"
         style="fill:#ffffff;fill-opacity:1;fill-rule:nonzero;stroke:none" />
      <path
         inkscape:connector-curvature="0"
         id="path257"
         d="m 557.54687,291.22266 v 20.68359 h -3.76953 v -11.82813 c 0,-1.96093 0,-2.54296 -1.68359,-2.54296 h -3.37109 v -2.35938 h 0.39843 c 1.92969,-0.0312 4.53516,-0.0586 5.36328,-3.95312 z m 0,0"
         style="fill:#ffffff;fill-opacity:1;fill-rule:nonzero;stroke:none" />
      <path
         inkscape:connector-curvature="0"
         id="path259"
         d="m 575.20703,305.96094 c 0,3.76953 -3.25,6.21875 -7.75391,6.21875 -4.71875,0 -7.6289,-2.63282 -7.6289,-6.21875 0,-3.25 2.35937,-4.38282 3.40234,-4.8711 -2.20703,-1.04297 -2.66797,-3.27734 -2.66797,-4.5039 0,-3.21875 2.66797,-5.69922 7.10938,-5.69922 4.25781,0 7.04687,2.29687 7.04687,5.88281 0,1.80859 -0.73437,3.37109 -2.69531,4.32031 2.39063,1.19532 3.1875,2.97266 3.1875,4.8711 m -11.0625,-0.1211 c 0,1.7461 1.22656,2.94141 3.49219,2.94141 1.99219,0 3.46484,-1.04297 3.46484,-2.97266 0,-0.36718 -0.0625,-2.9414 -3.46484,-2.9414 -3.27735,0 -3.49219,2.32812 -3.49219,2.97265 m 0.33984,-8.79297 c 0,0.91797 0.39454,2.72657 3.1836,2.72657 2.42187,0 3.03515,-1.56641 3.03515,-2.72657 0,-2.35937 -1.87109,-2.78906 -3.0664,-2.78906 -2.60156,-0.0312 -3.15235,1.65235 -3.15235,2.78906"
         style="fill:#ffffff;fill-opacity:1;fill-rule:nonzero;stroke:none" />
    </g>
  </g>
</svg>
